<svg xmlns="http://www.w3.org/2000/svg" x="0px" y="0px" width="20px" height="20px" viewBox="-2.773 -1.618 20 20" enable-background="new -2.773 -1.618 20 20" xml:space="preserve">
  <path d="M14.987,14.126c-1.453-1.444-2.19-3.153-2.19-5.081V6.241c0.014-2.14-1.425-3.559-2.66-4.123
	c-0.354-0.162-0.72-0.287-1.091-0.379V1.56c0-0.86-0.698-1.56-1.56-1.56C6.626,0,5.927,0.699,5.927,1.56v0.206
	c-0.334,0.09-0.663,0.208-0.981,0.355C3.58,2.75,2.196,4.267,2.184,6.239v2.806c0,1.993-0.704,3.702-2.091,5.081
	C0.01,14.21-0.021,14.33,0.014,14.442c0.035,0.11,0.13,0.193,0.245,0.213l2.961,0.511c0.551,0.096,1.06,0.175,1.542,0.238
	c0.544,1.067,1.613,1.751,2.781,1.751c1.168,0,2.238-0.686,2.782-1.753c0.481-0.063,0.986-0.141,1.535-0.236l2.96-0.511
	c0.114-0.02,0.209-0.103,0.244-0.214S15.07,14.21,14.987,14.126z M6.55,1.56c0-0.516,0.419-0.936,0.936-0.936
	c0.516,0,0.937,0.42,0.937,0.936v0.057C7.801,1.527,7.169,1.531,6.55,1.631V1.56z M7.543,16.532c-0.789,0-1.528-0.393-2.001-1.034
	c0.697,0.07,1.348,0.107,1.998,0.107c0.653,0,1.306-0.037,2.006-0.109C9.071,16.138,8.333,16.532,7.543,16.532z M11.753,14.552
	c-0.599,0.104-1.147,0.188-1.666,0.253h-0.001c-0.229,0.03-0.451,0.055-0.668,0.077c-0.003,0-0.005,0-0.008,0
	c-0.197,0.02-0.392,0.035-0.584,0.05c-0.037,0.004-0.073,0.005-0.109,0.007c-0.167,0.012-0.332,0.021-0.496,0.027
	c-0.033,0.001-0.066,0.003-0.101,0.003c-0.388,0.014-0.771,0.014-1.158,0c-0.034,0-0.069-0.002-0.103-0.003
	c-0.163-0.007-0.325-0.016-0.489-0.027c-0.039-0.002-0.077-0.003-0.116-0.007c-0.187-0.014-0.376-0.03-0.571-0.049
	c-0.006,0-0.013-0.001-0.02-0.001C5.448,14.859,5.228,14.835,5,14.807c-0.001,0-0.002,0-0.002,0
	c-0.521-0.065-1.071-0.151-1.672-0.255L0.935,14.14c1.243-1.421,1.873-3.132,1.873-5.095V6.241C2.818,4.545,4.02,3.234,5.206,2.687
	c0.354-0.163,0.719-0.284,1.092-0.369c0.002-0.001,0.006,0,0.009-0.001c0.769-0.173,1.586-0.181,2.365-0.021
	c0.004,0.001,0.008-0.001,0.013-0.001C9.09,2.38,9.491,2.509,9.876,2.686c1.151,0.526,2.308,1.828,2.296,3.553v2.807
	c0,1.882,0.678,3.631,1.97,5.094L11.753,14.552z"/>
  <path d="M9.488,3.537c-1.209-0.553-2.689-0.553-3.889,0c-0.685,0.316-1.846,1.24-1.855,2.7C3.742,6.408,3.88,6.549,4.053,6.55
	c0,0,0.001,0,0.001,0c0.172,0,0.312-0.139,0.312-0.31c0.008-1.148,0.942-1.883,1.493-2.137c1.04-0.48,2.323-0.478,3.369,0
	C9.384,4.175,9.57,4.106,9.642,3.949C9.713,3.793,9.644,3.608,9.488,3.537z"/>
</svg>