<svg xmlns="http://www.w3.org/2000/svg" x="0px" y="0px" width="20px" height="20px" viewBox="-2.135 -2.135 20 20" enable-background="new -2.135 -2.135 20 20" xml:space="preserve">
  <path fill="currentColor" d="M9.255,7.865l6.186-6.186c0.385-0.384,0.385-1.007,0-1.391c-0.384-0.384-1.006-0.384-1.39,0L7.865,6.474
	L1.679,0.288c-0.385-0.384-1.008-0.384-1.391,0c-0.385,0.384-0.385,1.007,0,1.391l6.186,6.186l-6.186,6.187
	c-0.385,0.384-0.385,1.007,0,1.39c0.191,0.192,0.443,0.289,0.695,0.289c0.251,0,0.502-0.097,0.695-0.289l6.186-6.186l6.187,6.186
	c0.191,0.192,0.443,0.289,0.694,0.289c0.252,0,0.504-0.097,0.695-0.289c0.385-0.384,0.385-1.007,0-1.39L9.255,7.865z"/>
</svg>