<svg xmlns="http://www.w3.org/2000/svg" x="0px" y="0px"
	 viewBox="0 0 32 32" style="enable-background:new 0 0 32 32;" xml:space="preserve">
<path d="M12,16c0,2.205,1.794,4,4,4c2.205,0,4-1.795,4-4s-1.795-4-4-4C13.794,12,12,13.795,12,16z M18.666,16
				c0,1.471-1.195,2.666-2.666,2.666S13.333,17.471,13.333,16s1.196-2.666,2.667-2.666S18.666,14.529,18.666,16z"/>
			<path d="M12,4c0,2.205,1.794,4,4,4c2.205,0,4-1.795,4-4s-1.795-4-4-4C13.794,0,12,1.795,12,4z M18.666,4
				c0,1.471-1.195,2.666-2.666,2.666S13.333,5.471,13.333,4S14.529,1.334,16,1.334S18.666,2.529,18.666,4z"/>
			<path d="M12,28c0,2.205,1.794,4,4,4c2.205,0,4-1.795,4-4c0-2.206-1.795-4-4-4C13.794,24,12,25.795,12,28z M18.666,28
				c0,1.47-1.195,2.666-2.666,2.666S13.333,29.471,13.333,28s1.196-2.666,2.667-2.666C17.471,25.333,18.666,26.529,18.666,28z"/>
</svg>
