<svg  xmlns="http://www.w3.org/2000/svg" x="0px" y="0px" width="24px" height="24px" viewBox="-90.046 -2.851 512 512" enable-background="new -90.046 -2.851 512 512"
	 xml:space="preserve">
<path d="M344.019,437.678c-16.675,0.135-30.299-13.279-30.432-29.953c-0.134-16.675,13.277-30.303,29.952-30.435h0.454
	c5.013-0.011,9.071-4.081,9.071-9.097V9.071c0-5.009-4.061-9.071-9.071-9.071H48.417C21.687,0.032,0.028,21.69,0,48.42v359.074
	c0.032,26.679,21.648,48.294,48.326,48.321H60.71v43.285c0,3.144,1.631,6.063,4.3,7.715c2.676,1.652,6.016,1.804,8.826,0.398
	l38.917-19.435l38.915,19.435c2.811,1.405,6.15,1.254,8.826-0.398c2.669-1.651,4.3-4.571,4.3-7.715v-43.285h179.225
	c5.013,0,9.075-4.062,9.075-9.07c0-5.01-4.063-9.071-9.075-9.071V437.678z M24.877,365.238c-0.563,0.307-1.099,0.661-1.648,0.999
	c-1.169,0.72-2.308,1.471-3.406,2.269c-0.557,0.407-1.135,0.798-1.669,1.229V153.703c0.017-16.71,13.561-30.258,30.275-30.275
	h286.517V359.12H48.329c-1.127,0-2.24,0.097-3.354,0.17c-0.319,0-0.642,0-0.961,0.045c-0.964,0.09-1.907,0.235-2.853,0.374
	c-0.536,0.084-1.071,0.15-1.603,0.246c-0.907,0.164-1.757,0.368-2.634,0.581c-0.566,0.132-1.13,0.274-1.691,0.451
	c-0.836,0.238-1.658,0.492-2.478,0.771c-0.567,0.197-1.127,0.403-1.684,0.613c-0.79,0.31-1.578,0.616-2.343,0.957
	c-0.561,0.25-1.103,0.524-1.652,0.799C26.337,364.479,25.589,364.834,24.877,365.238z M334.945,105.286H48.417
	c-11.01-0.014-21.697,3.753-30.275,10.662v-14.853C18.16,84.382,31.708,70.838,48.417,70.82h286.527V105.286z M48.417,18.142
	h286.527v34.536H48.417C37.4,52.674,26.713,56.446,18.142,63.366V48.399C18.174,31.697,31.714,18.163,48.417,18.142z
	 M48.326,437.692c-16.678,0-30.194-13.521-30.194-30.194c0-16.68,13.516-30.194,30.194-30.194h257.978
	c-4.92,6.146-8.26,13.403-9.731,21.132H48.666c-5.009,0-9.071,4.064-9.071,9.076c0,5.008,4.062,9.071,9.071,9.071h12.048v21.109
	H48.326z M146.648,484.444l-29.847-14.896c-2.552-1.277-5.554-1.277-8.105,0l-29.844,14.896v-67.879h67.796V484.444z
	 M164.791,437.692v-21.127h131.781c1.472,7.723,4.812,14.973,9.731,21.108L164.791,437.692z"/>
<path d="M135.437,248.588l-6.601,38.474c-0.577,3.403,0.815,6.834,3.606,8.861c2.792,2.032,6.49,2.302,9.545,0.703l34.55-18.141
	l34.547,18.141c3.061,1.599,6.756,1.329,9.548-0.703c2.789-2.027,4.188-5.461,3.604-8.865l-6.595-38.47l27.944-27.245
	c2.474-2.407,3.364-6.016,2.296-9.298c-1.064-3.279-3.902-5.671-7.32-6.171l-38.612-5.615l-17.277-35.004
	c-1.526-3.095-4.679-5.054-8.131-5.054c-3.456,0-6.606,1.959-8.137,5.054l-17.258,35.004l-38.637,5.615
	c-3.414,0.5-6.253,2.893-7.317,6.171c-1.068,3.283-0.177,6.892,2.292,9.298L135.437,248.588z M158.466,217.525
	c2.957-0.429,5.509-2.287,6.835-4.959l11.244-22.796l11.248,22.8c1.317,2.681,3.873,4.531,6.832,4.959l25.154,3.655l-18.203,17.745
	c-2.14,2.087-3.116,5.089-2.607,8.036l4.296,25.046l-22.502-11.83c-2.641-1.39-5.799-1.39-8.437,0l-22.498,11.824l4.292-25.051
	c0.503-2.946-0.471-5.944-2.605-8.028L133.31,221.18L158.466,217.525z"/>
</svg>
