<svg xmlns="http://www.w3.org/2000/svg" width="24" height="24">
  <path d="M19.922,3.597c-0.115-0.165-0.3-0.267-0.499-0.275L6.992,2.787c-0.355-0.016-0.654,0.26-0.669,0.615
	c-0.016,0.355,0.259,0.654,0.614,0.67L18.524,4.57l-2.277,7.11H6.107L4.276,1.706c-0.04-0.219-0.19-0.401-0.397-0.482l-3-1.179
	C0.547-0.085,0.174,0.077,0.044,0.408c-0.129,0.331,0.034,0.704,0.363,0.834l2.668,1.047l1.863,10.149
	c0.057,0.307,0.323,0.527,0.633,0.527h0.31l-0.707,1.961c-0.058,0.164-0.034,0.346,0.066,0.49c0.101,0.141,0.264,0.227,0.439,0.227
	h0.494c-0.307,0.342-0.494,0.791-0.494,1.287c0,1.063,0.865,1.928,1.927,1.928c1.064,0,1.929-0.865,1.929-1.928
	c0-0.496-0.188-0.945-0.496-1.287h4.205c-0.307,0.342-0.495,0.791-0.495,1.287c0,1.063,0.866,1.928,1.93,1.928
	s1.928-0.865,1.928-1.928c0-0.496-0.188-0.945-0.495-1.287h0.603c0.296,0,0.536-0.238,0.536-0.537c0-0.295-0.24-0.535-0.536-0.535
	H6.441l0.579-1.607h9.696c0.279,0,0.526-0.18,0.611-0.445l2.68-8.358C20.067,3.97,20.037,3.761,19.922,3.597z M7.607,17.788
	c-0.472,0-0.857-0.387-0.857-0.857c0-0.473,0.385-0.859,0.857-0.859c0.473,0,0.857,0.387,0.857,0.859
	C8.465,17.401,8.081,17.788,7.607,17.788z M14.681,17.788c-0.474,0-0.858-0.387-0.858-0.857c0-0.473,0.385-0.859,0.858-0.859
	c0.472,0,0.856,0.387,0.856,0.859C15.537,17.401,15.152,17.788,14.681,17.788z"/>
</svg>
