<svg xmlns="http://www.w3.org/2000/svg" x="0px" y="0px" width="24px" height="24px" viewBox="0 0 512 512" enable-background="new 0 0 512 512" xml:space="preserve">
<path d="M412,136c0,5.52,4.48,10,10,10s10-4.48,10-10s-4.48-10-10-10S412,130.48,412,136z" />
<path d="M452,256c0,12.809-1.285,25.593-3.816,38c-1.104,5.41,2.388,10.691,7.798,11.797c0.676,0.141,1.348,0.207,2.012,0.207
	c4.651,0,8.819-3.27,9.789-8.004c2.801-13.723,4.219-27.852,4.219-42c0-31.488-6.828-61.789-20.301-90.063
	c-2.375-4.984-8.34-7.102-13.328-4.727s-7.103,8.344-4.728,13.332C445.825,200.105,452,227.512,452,256z"/>
<path d="M256,0C118.024,0,0,117.801,0,256c0,47.207,13.527,97.41,36.336,135.382L0.512,498.839c-1.195,3.59-0.262,7.555,2.418,10.23
	c2.691,2.69,6.66,3.608,10.234,2.414l107.457-35.82C158.59,498.476,208.793,512,256,512c138.012,0,256-117.816,256-256
	C512,117.988,394.188,0,256,0z M256,492c-45.285,0-93.418-13.363-128.758-35.746c-2.504-1.586-5.625-2.004-8.516-1.039
	l-92.914,30.974l30.973-92.915c0.953-2.852,0.57-5.977-1.039-8.516C33.364,349.421,20,301.285,20,256C20,128.074,128.075,20,256,20
	s236,108.074,236,236C492,383.925,383.926,492,256,492z" />
<path d="M297.643,360.608c-20.848,31.725-42.036,56.235-77.703,56.235c-24.341-4.001-34.315-21.75-29.075-39.781l45.867-154.167
	c1.126-3.774-0.732-7.832-4.17-9.015c-3.381-1.183-10.029,3.268-15.777,9.635l-27.723,33.865
	c-0.732-5.691-0.056-15.101-0.056-18.877c20.848-31.723,55.051-56.798,78.266-56.798c22.088,2.312,32.512,20.173,28.681,39.837
	l-46.205,154.956c-0.62,3.493,1.184,7.043,4.339,8.17c3.381,1.184,10.537-3.269,16.285-9.635l27.723-33.865
	C298.883,346.859,297.643,356.833,297.643,360.608z M291.501,159.28c-17.523,0-31.78-12.96-31.78-32.061
	c0-19.103,14.199-32.063,31.78-32.063c17.524,0,31.779,12.959,31.779,32.063C323.225,146.32,309.025,159.28,291.501,159.28z"/>
</svg>
