<svg xmlns="http://www.w3.org/2000/svg" x="0px" y="0px" width="24px" height="24px" viewBox="-32.96 -1.9 512 512">
<path d="M443.347,417.909c-42.972-42.722-64.779-93.275-64.779-150.322v-82.98c0.397-63.279-42.152-105.246-78.704-121.947
	c-10.481-4.796-21.286-8.489-32.265-11.226v-5.291C267.599,20.692,246.93,0,221.467,0c-25.437,0-46.129,20.692-46.129,46.143v6.096
	c-9.887,2.664-19.602,6.146-29.031,10.496c-40.406,18.623-81.344,63.513-81.716,121.824v83.029
	c0,58.954-20.816,109.531-61.866,150.322c-2.44,2.452-3.333,6.046-2.305,9.342c1.041,3.296,3.829,5.725,7.236,6.319l87.589,15.116
	c16.306,2.824,31.336,5.132,45.622,7.04c16.108,31.544,47.741,51.791,82.286,51.791c34.557,0,66.203-20.27,82.287-51.843
	c14.248-1.883,29.167-4.187,45.399-6.988l87.575-15.116c3.396-0.595,6.196-3.023,7.236-6.344
	C446.692,423.955,445.799,420.361,443.347,417.909z M193.775,46.143c0-15.265,12.427-27.693,27.692-27.693
	c15.253,0,27.693,12.428,27.693,27.693v1.672c-18.399-2.639-37.059-2.527-55.385,0.434V46.143z M223.153,489.08
	c-23.368,0-45.201-11.622-59.214-30.604c20.617,2.106,39.873,3.198,59.116,3.198c19.315,0,38.62-1.092,59.313-3.225
	C268.342,477.434,246.533,489.08,223.153,489.08z M347.69,430.498c-17.694,3.047-33.926,5.55-49.266,7.483h-0.049
	c-6.74,0.867-13.332,1.611-19.75,2.254c-0.075,0.026-0.149,0.026-0.223,0.026c-5.849,0.595-11.598,1.042-17.297,1.486
	c-1.092,0.074-2.156,0.149-3.223,0.198c-4.933,0.349-9.813,0.594-14.671,0.77c-0.991,0.049-1.981,0.098-2.974,0.124
	c-11.474,0.396-22.798,0.396-34.272,0c-1.015-0.026-2.044-0.075-3.06-0.124c-4.783-0.176-9.602-0.421-14.46-0.77
	c-1.14-0.049-2.292-0.124-3.444-0.198c-5.538-0.396-11.14-0.892-16.864-1.436c-0.211-0.027-0.396-0.051-0.595-0.051
	c-6.381-0.646-12.912-1.388-19.614-2.231c-0.025,0-0.062,0-0.087,0c-15.39-1.956-31.67-4.46-49.463-7.532L27.679,418.28
	c36.763-42.003,55.375-92.606,55.375-150.693v-82.98c0.309-50.157,35.871-88.927,70.96-105.109
	c10.446-4.808,21.263-8.401,32.277-10.916c0.087-0.025,0.186-0.013,0.285-0.025c22.736-5.117,46.937-5.353,69.943-0.631
	c0.124,0.025,0.225-0.025,0.373-0.013c12.019,2.515,23.864,6.319,35.289,11.524c34.048,15.575,68.247,54.084,67.9,105.122v83.053
	c0,55.684,20.07,107.426,58.284,150.694L347.69,430.498z"/>
</svg>
