<svg xmlns="http://www.w3.org/2000/svg" x="0px" y="0px"
	 viewBox="0 0 512 512" style="enable-background:new 0 0 512 512;" xml:space="preserve">
<path d="M369.97,369.968c-84.637,84.637-221.855,84.637-306.493,0c-84.635-84.635-84.635-221.854,0-306.491
	c84.638-84.635,221.856-84.635,306.493,0C454.604,148.114,454.604,285.333,369.97,369.968z M89.019,89.018
	c-70.532,70.532-70.532,184.878,0,255.411c70.531,70.531,184.878,70.531,255.408,0c70.533-70.532,70.533-184.879,0-255.411
	C273.896,18.487,159.548,18.487,89.019,89.018z"/>
<path d="M344.426,369.968l25.542-25.539l38.312,38.311l-25.541,25.541L344.426,369.968z M318.887,114.56l-25.54,25.54
	c-42.315-42.315-110.933-42.315-153.247,0l-25.54-25.54C170.985,58.134,262.462,58.134,318.887,114.56z"/>
<path d="M510.443,433.821l-76.622,76.622l-89.396-89.396l76.622-76.621L510.443,433.821z M433.821,459.362l25.539-25.539
	l-38.313-38.313l-25.539,25.54L433.821,459.362z"/>
</svg>
