<svg xmlns="http://www.w3.org/2000/svg" x="0px" y="0px" width="20px" height="20px" viewBox="-1.946 -1.946 20 20" enable-background="new -1.946 -1.946 20 20"	xml:space="preserve">
<path d="M12.962,4.278c0,0.174,0.141,0.315,0.314,0.315s0.314-0.141,0.314-0.315c0-0.173-0.141-0.314-0.314-0.314
	S12.962,4.105,12.962,4.278z"/>
<path d="M14.22,8.054c0,0.403-0.04,0.806-0.12,1.195c-0.034,0.17,0.075,0.337,0.245,0.371c0.021,0.005,0.043,0.007,0.063,0.007
	c0.146,0,0.277-0.103,0.309-0.252c0.088-0.432,0.132-0.876,0.132-1.321c0-0.99-0.214-1.944-0.639-2.833
	c-0.074-0.157-0.262-0.223-0.419-0.148s-0.224,0.262-0.148,0.419C14.025,6.295,14.22,7.157,14.22,8.054z"/>
<path d="M9.627,10.885H9.313v-4.09c0-0.174-0.142-0.314-0.314-0.314H6.481c-0.174,0-0.315,0.141-0.315,0.314v1.259
	c0,0.174,0.141,0.314,0.315,0.314h0.314v2.517H6.481c-0.174,0-0.315,0.142-0.315,0.314v1.259c0,0.174,0.141,0.314,0.315,0.314h3.146
	c0.174,0,0.314-0.141,0.314-0.314v-1.259C9.941,11.026,9.801,10.885,9.627,10.885z M9.313,12.144H6.795v-0.629H7.11
	c0.174,0,0.314-0.142,0.314-0.315V8.054c0-0.174-0.141-0.314-0.314-0.314H6.795V7.11h1.887v4.089c0,0.174,0.142,0.315,0.315,0.315
	h0.314V12.144z"/>
<path d="M8.054,5.852c0.693,0,1.259-0.564,1.259-1.258S8.747,3.335,8.054,3.335c-0.694,0-1.258,0.564-1.258,1.258
	S7.36,5.852,8.054,5.852z M8.054,3.964c0.347,0,0.629,0.282,0.629,0.629c0,0.347-0.282,0.629-0.629,0.629
	c-0.347,0-0.629-0.282-0.629-0.629C7.424,4.246,7.707,3.964,8.054,3.964z"/>
<path d="M8.054,0C3.713,0,0,3.706,0,8.054c0,1.485,0.426,3.064,1.143,4.259l-1.127,3.381c-0.038,0.113-0.008,0.237,0.076,0.322
	c0.084,0.084,0.209,0.113,0.322,0.075l3.381-1.127c1.194,0.718,2.774,1.144,4.259,1.144c4.342,0,8.054-3.706,8.054-8.054
	C16.107,3.712,12.401,0,8.054,0z M8.054,15.479c-1.425,0-2.939-0.421-4.051-1.125c-0.079-0.05-0.177-0.063-0.268-0.032l-2.923,0.974
	l0.975-2.923c0.03-0.09,0.018-0.188-0.033-0.268C1.05,10.993,0.629,9.479,0.629,8.054c0-4.024,3.4-7.425,7.424-7.425
	s7.425,3.4,7.425,7.425S12.078,15.479,8.054,15.479z"/>
</svg>
