<svg xmlns="http://www.w3.org/2000/svg" x="0px" y="0px" width="20px" height="20px" viewBox="-4.102 -1.511 20 20" enable-background="new -4.102 -1.511 20 20" xml:space="preserve">
<path d="M11.493,14.623c-0.557,0.005-1.012-0.444-1.017-1.001c-0.004-0.557,0.444-1.013,1.001-1.017h0.016
	c0.167-0.001,0.303-0.137,0.303-0.304V0.303C11.796,0.136,11.66,0,11.493,0H1.618C0.725,0.001,0.001,0.725,0,1.618v11.997
	c0.001,0.892,0.724,1.613,1.615,1.614h0.414v1.446c0,0.105,0.055,0.203,0.144,0.258c0.089,0.056,0.201,0.061,0.295,0.014l1.3-0.649
	l1.3,0.649c0.094,0.047,0.205,0.042,0.295-0.014c0.089-0.055,0.144-0.152,0.144-0.258v-1.446h5.987c0.168,0,0.304-0.136,0.304-0.303
	S11.661,14.623,11.493,14.623L11.493,14.623z M0.831,12.202c-0.019,0.011-0.037,0.022-0.055,0.034
	c-0.04,0.023-0.078,0.049-0.114,0.075c-0.019,0.014-0.038,0.026-0.056,0.041V5.135c0-0.558,0.453-1.011,1.011-1.011h9.573v7.874
	H1.615c-0.038,0-0.075,0.003-0.112,0.006c-0.01,0-0.021,0-0.032,0.002c-0.032,0.003-0.064,0.007-0.096,0.012
	c-0.018,0.003-0.036,0.005-0.053,0.009c-0.03,0.005-0.059,0.012-0.088,0.02c-0.019,0.004-0.038,0.009-0.056,0.015
	c-0.028,0.008-0.056,0.017-0.083,0.026c-0.019,0.006-0.038,0.013-0.056,0.02c-0.026,0.011-0.053,0.021-0.079,0.032
	c-0.019,0.009-0.037,0.018-0.055,0.027C0.88,12.178,0.855,12.189,0.831,12.202z M11.19,3.518H1.618
	c-0.368,0-0.725,0.125-1.012,0.356V3.378c0-0.559,0.454-1.011,1.012-1.012h9.573V3.518z M1.618,0.606h9.573V1.76H1.618
	c-0.368,0-0.725,0.126-1.012,0.357v-0.5C0.607,1.059,1.06,0.607,1.618,0.606z M1.615,14.623c-0.558,0-1.009-0.451-1.009-1.009
	c0-0.557,0.451-1.009,1.009-1.009h8.619c-0.164,0.206-0.275,0.448-0.325,0.706H1.626c-0.167,0-0.303,0.136-0.303,0.304
	c0,0.167,0.136,0.303,0.303,0.303h0.402v0.705H1.615z M4.899,16.186l-0.997-0.498c-0.085-0.043-0.186-0.043-0.271,0l-0.997,0.498
	v-2.268h2.265V16.186z M5.505,14.623v-0.705h4.403c0.05,0.258,0.161,0.5,0.325,0.705H5.505z"/>
<path d="M4.525,8.306L4.304,9.591C4.285,9.704,4.332,9.819,4.425,9.887C4.518,9.955,4.642,9.964,4.744,9.91l1.154-0.606L7.053,9.91
	c0.102,0.054,0.226,0.045,0.318-0.023c0.094-0.067,0.141-0.183,0.121-0.296L7.271,8.306l0.934-0.91
	c0.082-0.081,0.112-0.201,0.077-0.311c-0.036-0.11-0.131-0.189-0.245-0.206l-1.29-0.188L6.17,5.521
	C6.119,5.418,6.014,5.353,5.898,5.353c-0.115,0-0.22,0.065-0.271,0.169L5.05,6.691L3.759,6.878C3.645,6.895,3.55,6.975,3.515,7.084
	c-0.036,0.11-0.006,0.23,0.076,0.311L4.525,8.306z M5.294,7.268c0.099-0.014,0.184-0.077,0.229-0.166L5.898,6.34l0.375,0.762
	c0.044,0.089,0.13,0.151,0.228,0.166L7.343,7.39L6.734,7.983c-0.071,0.069-0.104,0.17-0.087,0.268l0.144,0.837L6.04,8.692
	c-0.088-0.046-0.194-0.046-0.282,0L5.006,9.088l0.143-0.837c0.017-0.099-0.015-0.199-0.087-0.268L4.454,7.39L5.294,7.268z"/>
</svg>
