<svg xmlns="http://www.w3.org/2000/svg" x="0px" y="0px" width="20px" height="20px" viewBox="-3.157 -2.135 20 20" enable-background="new -3.157 -2.135 20 20"	xml:space="preserve">
  <path fill="currentColor" d="M7.596,15.685c3.155-0.353,5.684-2.875,6.043-6.03c0.474-4.125-2.734-7.638-6.754-7.683V0.121
	c0-0.103-0.128-0.158-0.216-0.093L2.859,2.827c-0.064,0.048-0.064,0.141,0,0.189l3.811,2.799c0.088,0.064,0.216,0.006,0.216-0.093
	V3.874c2.824,0.045,5.087,2.449,4.894,5.321c-0.163,2.472-2.178,4.477-4.65,4.634c-2.617,0.167-4.845-1.702-5.243-4.178
	C1.812,9.192,1.41,8.857,0.947,8.857c-0.575,0-1.025,0.512-0.936,1.08C0.572,13.462,3.826,16.106,7.596,15.685z"/>
</svg>
